<?xml version="1.0" encoding="utf-8"?>
<!-- Generator: Adobe Illustrator 16.0.3, SVG Export Plug-In . SVG Version: 6.00 Build 0)  -->
<!DOCTYPE svg PUBLIC "-//W3C//DTD SVG 1.1//EN" "http://www.w3.org/Graphics/SVG/1.1/DTD/svg11.dtd">
<svg version="1.1" id="Layer_1" xmlns="http://www.w3.org/2000/svg" xmlns:xlink="http://www.w3.org/1999/xlink" x="0px" y="0px"
	 width="500px" height="125px" viewBox="0 0 500 125" enable-background="new 0 0 500 125" xml:space="preserve">
<path fill="#121212" d="M19.471,32.787c1.179-0.369,1.179-0.369,1.77-0.369c1.769,0,3.979,3.686,5.601,9.582
	c3.095-2.947,3.538-3.562,5.012-4.79c3.686-3.071,8.403-4.792,13.415-4.792c4.422,0,8.402,1.352,8.402,2.703
	c0,0.368-0.147,0.86-0.295,1.35l-4.569,9.951c-0.295,0.738-0.737,1.106-1.179,1.106c-0.295,0-0.59-0.123-1.031-0.246
	c-2.065-0.614-4.128-0.983-5.897-0.983c-3.095,0-6.781,1.842-11.203,5.896v40.907c0,1.842-0.295,2.088-2.506,2.088h-13.71
	c-2.211,0-2.506-0.246-2.506-2.088V55.758c0-7.002-0.884-10.442-4.421-17.075c-0.148-0.368-0.295-0.737-0.295-1.105
	c0-0.492,0.59-0.982,1.474-1.229L19.471,32.787z"/>
<path fill="#121212" d="M69.15,69.025c0.295,10.563,5.454,15.479,16.362,15.479c5.455,0,11.204-1.352,16.805-3.811
	c0.737-0.368,1.474-0.489,1.917-0.489c0.736,0,1.179,0.368,1.622,1.104l3.685,7.371c0.443,0.735,0.443,0.858,0.443,1.352
	c0,1.351-1.18,2.088-6.044,3.808c-6.486,2.334-13.12,3.438-20.343,3.438c-9.434,0-16.805-1.965-21.964-6.018
	c-7.076-5.283-11.056-14.742-11.056-25.922c0-19.777,12.825-32.921,32.283-32.921s29.187,11.179,29.187,33.535
	c0,2.458-0.589,3.071-3.243,3.071H69.15V69.025z M92.441,57.601c-0.295-10.196-3.244-14.004-10.761-14.004
	c-7.517,0-10.908,3.931-12.235,14.004H92.441z"/>
<path fill="#121212" d="M152.073,53.67c0-7.001-2.358-9.213-9.729-9.213c-4.422,0-10.024,1.105-16.51,3.193
	c-0.589,0.247-1.179,0.369-1.621,0.369c-0.737,0-1.179-0.369-1.474-1.229l-3.096-7.37c-0.147-0.368-0.295-0.983-0.295-1.352
	c0-2.58,13.415-5.651,25.207-5.651c11.645,0,19.605,3.194,22.996,9.459c1.474,2.58,2.063,5.528,2.063,10.195v25.061
	c0,5.404,0.884,8.968,3.39,13.267c0.295,0.49,0.442,0.982,0.442,1.352c0,0.493-0.442,0.982-1.179,1.229l-11.499,3.809
	c-0.442,0.244-1.326,0.367-1.768,0.367c-1.327,0-2.801-2.334-4.422-7.246c-5.896,5.035-11.203,7.003-18.869,7.003
	c-13.562,0-22.111-7.249-22.111-18.552c0-10.932,7.076-17.441,21.964-19.776c3.833-0.737,8.402-0.982,16.51-1.106V53.67H152.073z
	 M152.073,67.674c-14.741,0-20.638,2.701-20.638,9.827c0,4.791,4.128,8.476,9.435,8.476c3.98,0,7.666-1.596,11.203-4.789V67.674z"/>
<path fill="#121212" d="M192.669,9.122c1.474-0.247,1.474-0.247,1.769-0.247c1.032,0,1.474,0.615,1.474,2.089V72.25
	c0,6.88,0,7.125,0.295,8.107c0.589,1.72,1.622,2.455,3.686,2.455c1.621,0,2.948-0.244,4.864-0.735
	c0.442-0.124,0.884-0.124,1.032-0.124c0.59,0,1.031,0.246,1.179,0.738l2.949,10.072l0.147,0.491
	c0.148,0.245,0.148,0.368,0.148,0.491c0,1.596-7.813,3.439-14.889,3.439c-8.55,0-14.446-3.072-16.804-8.846
	c-1.18-2.824-1.32-4.301-1.32-14.986V13.956c0-0.422,0-1.424,0-2.214C177.173,11.716,192.669,9.122,192.669,9.122z"/>
<path fill="none" stroke="#121212" stroke-miterlimit="10" d="M286.365,63.498c1.621,4.667,3.096,10.318,4.863,17.689
	c1.621-6.51,3.537-13.268,5.158-17.689l10.319-28.13c0.442-1.352,0.885-1.721,1.769-1.721c0,0,0.59,0,1.181,0.123l12.233,1.228
	c1.621,0.124,2.211,0.492,2.211,1.229c0,0.369-0.146,0.859-0.293,1.351l-24.47,58.35c-0.591,1.473-0.886,1.598-2.802,1.598h-12.087
	c-1.918,0-2.214-0.125-2.802-1.598l-24.026-58.35c-0.295-0.615-0.442-0.982-0.442-1.351c0-0.737,0.588-0.983,2.358-1.229
	l14.444-1.228c1.031-0.123,1.031-0.123,1.179-0.123c0.887,0,1.327,0.369,1.771,1.721L286.365,63.498z"/>
<path fill="none" stroke="#121212" stroke-miterlimit="10" d="M378.818,32.049c0.441-0.123,1.181-0.246,1.476-0.246
	c1.769,0,3.685,3.071,5.306,8.477c7.373-5.651,13.711-7.862,22.11-7.862c13.121,0,19.017,6.02,19.017,19.409v41.274
	c0,1.842-0.294,2.088-2.505,2.088h-13.71c-2.211,0-2.505-0.246-2.505-2.088V55.267c0-7.248-2.507-10.319-8.401-10.319
	c-4.275,0-7.666,1.352-12.826,5.037v43.119c0,1.842-0.295,2.088-2.506,2.088h-13.709c-2.211,0-2.506-0.246-2.506-2.088V51.827
	c0-5.282-1.031-9.705-3.096-13.39c-0.295-0.492-0.441-0.86-0.441-1.228s0.441-0.86,1.178-1.106L378.818,32.049z"/>
<path fill="none" stroke="#121212" stroke-miterlimit="10" d="M437.164,104.402c0.295-0.735,0.886-1.229,1.622-1.229
	c0.296,0,0.885,0.122,1.326,0.369c8.107,3.07,15.331,4.545,21.815,4.545c8.255,0,11.353-2.826,11.353-10.195
	c0-1.965-0.296-4.791-0.737-7.984c-5.455,3.193-10.761,4.545-17.1,4.545c-14.89,0-24.176-11.547-24.176-29.852
	c0-19.776,10.466-32.185,26.978-32.185c6.78,0,11.055,1.474,16.949,5.651c1.77-3.562,3.98-6.02,5.16-6.02
	c0.441,0,1.181,0.123,1.476,0.247l11.645,3.438c0.886,0.369,1.327,0.737,1.327,1.229c0,0.368,0,0.368-0.885,2.212
	c-2.358,4.544-3.243,8.353-3.243,13.881v18.179c0,6.636,0.147,13.392,0.442,20.025c0.146,3.315,0.295,6.141,0.295,7.738
	c0,14.002-9.876,21.865-27.714,21.865c-12.528,0-29.925-3.932-29.925-6.758c0-0.246,0.147-0.858,0.298-1.229L437.164,104.402z
	 M472.543,48.878c-4.127-2.579-6.928-3.562-10.467-3.562c-7.813,0-12.087,6.633-12.087,18.672c0,11.791,3.831,18.058,10.908,18.058
	c4.569,0,8.401-1.353,11.646-4.176V48.878z"/>
<path fill="none" stroke="#121212" stroke-miterlimit="10" d="M222.49,45.931c-2.211,0-2.506-0.246-2.506-2.088v-7.248
	c0-1.843,0.294-2.088,2.506-2.088h27.417c2.212,0,2.507,0.246,2.507,2.088v56.506c0,1.842-0.295,2.088-2.507,2.088h-13.708
	c-2.211,0-2.506-0.246-2.506-2.088v-47.17H222.49z"/>
<circle fill="none" stroke="#121212" stroke-miterlimit="10" cx="243.285" cy="20.884" r="8.968"/>
<path fill="none" stroke="#121212" stroke-miterlimit="10" d="M330.989,45.931c-2.212,0-2.505-0.246-2.505-2.088v-7.248
	c0-1.843,0.293-2.088,2.505-2.088h27.418c2.212,0,2.507,0.246,2.507,2.088v56.506c0,1.842-0.295,2.088-2.507,2.088h-13.709
	c-2.212,0-2.505-0.246-2.505-2.088v-47.17H330.989z"/>
<circle fill="none" stroke="#121212" stroke-miterlimit="10" cx="351.784" cy="20.884" r="8.968"/>
<path fill="none" stroke="#121212" stroke-miterlimit="10" d="M209.835,6.119c1.474-0.246,1.474-0.246,1.768-0.246
	c1.033,0,1.474,0.615,1.474,2.089v64.289c0,6.88,0,7.125,0.295,8.106c0.589,1.721,1.622,2.457,3.685,2.457
	c1.622,0,2.949-0.244,4.865-0.736c0.442-0.124,0.884-0.124,1.032-0.124c0.59,0,1.031,0.246,1.179,0.737l2.949,10.072l0.147,0.492
	c0.147,0.245,0.147,0.368,0.147,0.491c0,1.597-7.813,3.438-14.888,3.438c-8.55,0-14.446-3.072-16.804-8.845
	c-1.18-2.825-1.32-4.301-1.32-14.985V10.952c0-0.421,0-1.424,0-2.214C194.339,8.713,209.835,6.119,209.835,6.119z"/>
</svg>
