<?xml version="1.0" encoding="utf-8"?>
<!-- Generator: Adobe Illustrator 16.0.3, SVG Export Plug-In . SVG Version: 6.00 Build 0)  -->
<!DOCTYPE svg PUBLIC "-//W3C//DTD SVG 1.1//EN" "http://www.w3.org/Graphics/SVG/1.1/DTD/svg11.dtd">
<svg version="1.1" id="Layer_1" xmlns="http://www.w3.org/2000/svg" xmlns:xlink="http://www.w3.org/1999/xlink" x="0px" y="0px"
	 width="442.744px" height="104.169px" viewBox="0 0 442.744 104.169" enable-background="new 0 0 442.744 104.169"
	 xml:space="preserve">
<path fill="#30BDB6" d="M12.151,24.381c1.068-0.334,1.068-0.334,1.603-0.334c1.602,0,3.605,3.338,5.074,8.68
	c2.804-2.67,3.205-3.227,4.54-4.339c3.338-2.782,7.612-4.34,12.152-4.34c4.006,0,7.611,1.224,7.611,2.449
	c0,0.333-0.133,0.779-0.268,1.223l-4.139,9.014c-0.267,0.668-0.667,1.001-1.068,1.001c-0.267,0-0.534-0.111-0.934-0.222
	c-1.871-0.556-3.74-0.891-5.342-0.891c-2.804,0-6.143,1.669-10.149,5.341V79.02c0,1.669-0.267,1.892-2.27,1.892H6.543
	c-2.003,0-2.271-0.223-2.271-1.892V45.19c0-6.343-0.801-9.459-4.005-15.468C0.133,29.389,0,29.054,0,28.721
	c0-0.445,0.534-0.89,1.335-1.113L12.151,24.381z"/>
<path fill="#30BDB6" d="M57.155,57.209c0.267,9.568,4.94,14.021,14.822,14.021c4.941,0,10.149-1.225,15.223-3.451
	c0.667-0.334,1.335-0.444,1.736-0.444c0.667,0,1.068,0.334,1.469,1.001l3.338,6.678c0.401,0.667,0.401,0.778,0.401,1.224
	c0,1.224-1.069,1.892-5.475,3.449c-5.876,2.114-11.885,3.116-18.428,3.116c-8.546,0-15.223-1.781-19.897-5.452
	c-6.41-4.786-10.015-13.354-10.015-23.481c0-17.916,11.618-29.823,29.245-29.823s26.439,10.126,26.439,30.379
	c0,2.226-0.534,2.783-2.938,2.783H57.155z M78.253,46.86c-0.267-9.237-2.938-12.687-9.749-12.687s-9.881,3.561-11.083,12.687H78.253
	z"/>
<path fill="#30BDB6" d="M132.272,43.298c0-6.342-2.136-8.346-8.813-8.346c-4.006,0-9.081,1.001-14.956,2.893
	c-0.534,0.223-1.068,0.334-1.469,0.334c-0.668,0-1.068-0.334-1.335-1.113l-2.804-6.676c-0.134-0.333-0.267-0.89-0.267-1.224
	c0-2.337,12.152-5.119,22.834-5.119c10.549,0,17.76,2.894,20.832,8.569c1.335,2.337,1.87,5.007,1.87,9.235v22.702
	c0,4.896,0.801,8.123,3.071,12.019c0.267,0.444,0.401,0.89,0.401,1.224c0,0.446-0.401,0.89-1.068,1.113l-10.416,3.449
	c-0.4,0.223-1.201,0.334-1.602,0.334c-1.202,0-2.538-2.114-4.006-6.565c-5.342,4.563-10.149,6.344-17.093,6.344
	c-12.285,0-20.03-6.566-20.03-16.805c0-9.903,6.41-15.801,19.897-17.916c3.472-0.667,7.611-0.89,14.956-1.002V43.298z
	 M132.272,55.984c-13.354,0-18.695,2.448-18.695,8.902c0,4.34,3.739,7.678,8.546,7.678c3.605,0,6.944-1.445,10.149-4.339V55.984z"/>
<path fill="#30BDB6" d="M169.048,2.943c1.335-0.223,1.335-0.223,1.602-0.223c0.935,0,1.335,0.557,1.335,1.893V60.13
	c0,6.233,0,6.455,0.268,7.345c0.534,1.558,1.469,2.225,3.338,2.225c1.469,0,2.671-0.222,4.407-0.667
	c0.4-0.112,0.801-0.112,0.935-0.112c0.534,0,0.934,0.223,1.068,0.669l2.671,9.124l0.133,0.445c0.134,0.223,0.134,0.334,0.134,0.445
	c0,1.445-7.078,3.116-13.487,3.116c-7.745,0-13.086-2.783-15.223-8.013c-1.068-2.56-1.195-3.896-1.195-13.576V7.322
	c0-0.382,0-1.291,0-2.006C155.011,5.293,169.048,2.943,169.048,2.943z"/>
<path fill="#333333" d="M253.926,52.201c1.468,4.228,2.804,9.347,4.406,16.024c1.469-5.897,3.203-12.019,4.672-16.024l9.349-25.483
	c0.401-1.224,0.802-1.559,1.603-1.559c0,0,0.533,0,1.068,0.111l11.083,1.113c1.469,0.112,2.003,0.445,2.003,1.113
	c0,0.334-0.133,0.778-0.267,1.224l-22.166,52.858c-0.535,1.334-0.802,1.446-2.538,1.446h-10.949c-1.737,0-2.004-0.112-2.538-1.446
	l-21.765-52.858c-0.268-0.557-0.401-0.89-0.401-1.224c0-0.668,0.533-0.891,2.137-1.113l13.086-1.113
	c0.935-0.111,0.935-0.111,1.067-0.111c0.803,0,1.202,0.334,1.603,1.559L253.926,52.201z"/>
<path fill="#333333" d="M337.678,23.713c0.4-0.111,1.068-0.223,1.336-0.223c1.603,0,3.338,2.782,4.806,7.679
	c6.679-5.119,12.42-7.122,20.03-7.122c11.886,0,17.227,5.453,17.227,17.583v37.39c0,1.669-0.267,1.892-2.27,1.892h-12.419
	c-2.003,0-2.27-0.223-2.27-1.892V44.745c0-6.565-2.271-9.348-7.611-9.348c-3.873,0-6.944,1.225-11.618,4.563v39.06
	c0,1.669-0.268,1.892-2.271,1.892h-12.419c-2.003,0-2.27-0.223-2.27-1.892v-37.39c0-4.785-0.935-8.792-2.804-12.129
	c-0.268-0.446-0.401-0.779-0.401-1.113s0.401-0.779,1.067-1.002L337.678,23.713z"/>
<path fill="#333333" d="M390.531,89.257c0.268-0.667,0.803-1.112,1.47-1.112c0.268,0,0.801,0.11,1.201,0.334
	c7.345,2.781,13.888,4.117,19.763,4.117c7.479,0,10.283-2.561,10.283-9.236c0-1.78-0.268-4.34-0.668-7.233
	c-4.941,2.894-9.748,4.117-15.49,4.117c-13.487,0-21.899-10.46-21.899-27.042c0-17.916,9.48-29.155,24.438-29.155
	c6.143,0,10.015,1.335,15.354,5.119c1.603-3.227,3.606-5.453,4.675-5.453c0.4,0,1.069,0.111,1.336,0.223l10.549,3.115
	c0.802,0.334,1.202,0.667,1.202,1.113c0,0.333,0,0.333-0.802,2.003c-2.136,4.117-2.938,7.567-2.938,12.575v16.469
	c0,6.01,0.134,12.13,0.4,18.14c0.133,3.004,0.268,5.563,0.268,7.011c0,12.685-8.946,19.808-25.105,19.808
	c-11.35,0-27.107-3.562-27.107-6.121c0-0.223,0.134-0.778,0.269-1.113L390.531,89.257z M422.58,38.958
	c-3.738-2.336-6.275-3.227-9.481-3.227c-7.077,0-10.949,6.009-10.949,16.914c0,10.683,3.471,16.358,9.882,16.358
	c4.14,0,7.611-1.225,10.549-3.783V38.958z"/>
<path fill="#333333" d="M196.062,36.288c-2.003,0-2.27-0.223-2.27-1.891v-6.565c0-1.669,0.267-1.892,2.27-1.892h24.836
	c2.004,0,2.271,0.223,2.271,1.892V79.02c0,1.669-0.268,1.892-2.271,1.892H208.48c-2.003,0-2.27-0.223-2.27-1.892V36.288H196.062z"/>
<circle fill="#333333" cx="214.9" cy="13.598" r="8.124"/>
<path fill="#333333" d="M294.35,36.288c-2.003,0-2.27-0.223-2.27-1.891v-6.565c0-1.669,0.267-1.892,2.27-1.892h24.837
	c2.004,0,2.271,0.223,2.271,1.892V79.02c0,1.669-0.268,1.892-2.271,1.892h-12.418c-2.003,0-2.27-0.223-2.27-1.892V36.288H294.35z"/>
<circle fill="#333333" cx="313.188" cy="13.598" r="8.124"/>
<path fill="#333333" d="M184.599,0.223C185.934,0,185.934,0,186.2,0c0.936,0,1.335,0.557,1.335,1.893V60.13
	c0,6.233,0,6.455,0.268,7.345c0.534,1.558,1.469,2.225,3.338,2.225c1.469,0,2.671-0.222,4.407-0.667
	c0.4-0.112,0.801-0.112,0.935-0.112c0.535,0,0.934,0.223,1.068,0.669l2.671,9.124l0.133,0.445c0.134,0.223,0.134,0.334,0.134,0.445
	c0,1.445-7.078,3.116-13.487,3.116c-7.745,0-13.086-2.783-15.223-8.013c-1.068-2.56-1.195-3.896-1.195-13.576V4.602
	c0-0.382,0-1.291,0-2.006C170.561,2.573,184.599,0.223,184.599,0.223z"/>
</svg>
