<?xml version="1.0" encoding="utf-8"?>
<!-- Generator: Adobe Illustrator 16.0.3, SVG Export Plug-In . SVG Version: 6.00 Build 0)  -->
<!DOCTYPE svg PUBLIC "-//W3C//DTD SVG 1.1//EN" "http://www.w3.org/Graphics/SVG/1.1/DTD/svg11.dtd">
<svg version="1.1" id="Layer_1" xmlns="http://www.w3.org/2000/svg" xmlns:xlink="http://www.w3.org/1999/xlink" x="0px" y="0px"
	 width="187.926px" height="44.215px" viewBox="0 0 187.926 44.215" enable-background="new 0 0 187.926 44.215"
	 xml:space="preserve">
<g>
	<path fill="#37B7B4" d="M5.158,10.349c0.454-0.142,0.454-0.142,0.681-0.142c0.679,0,1.53,1.417,2.153,3.684
		c1.19-1.133,1.36-1.37,1.928-1.841c1.417-1.182,3.231-1.843,5.158-1.843c1.7,0,3.23,0.52,3.23,1.038
		c0,0.143-0.056,0.332-0.113,0.52l-1.757,3.826c-0.113,0.284-0.283,0.425-0.454,0.425c-0.113,0-0.227-0.048-0.396-0.094
		c-0.794-0.235-1.587-0.378-2.267-0.378c-1.19,0-2.607,0.708-4.308,2.267v15.728c0,0.71-0.114,0.805-0.963,0.805H2.778
		c-0.851,0-0.964-0.095-0.964-0.805V19.181c0-2.692-0.34-4.015-1.701-6.565C0.056,12.475,0,12.332,0,12.19
		c0-0.188,0.227-0.377,0.566-0.472L5.158,10.349z"/>
	<path fill="#37B7B4" d="M24.259,24.283c0.114,4.061,2.097,5.95,6.292,5.95c2.097,0,4.307-0.519,6.461-1.465
		c0.283-0.142,0.567-0.188,0.737-0.188c0.283,0,0.453,0.141,0.623,0.424l1.417,2.835c0.17,0.283,0.17,0.331,0.17,0.52
		c0,0.52-0.454,0.802-2.324,1.465c-2.495,0.897-5.045,1.321-7.822,1.321c-3.628,0-6.462-0.755-8.446-2.313
		c-2.721-2.03-4.251-5.669-4.251-9.967c0-7.605,4.932-12.658,12.413-12.658c7.482,0,11.223,4.298,11.223,12.895
		c0,0.945-0.227,1.182-1.247,1.182H24.259z M33.216,19.89c-0.114-3.921-1.248-5.385-4.138-5.385c-2.891,0-4.195,1.511-4.705,5.385
		H33.216z"/>
	<path fill="#37B7B4" d="M56.144,18.377c0-2.69-0.907-3.542-3.742-3.542c-1.7,0-3.854,0.424-6.348,1.228
		c-0.226,0.094-0.453,0.142-0.623,0.142c-0.283,0-0.453-0.142-0.566-0.472l-1.191-2.834c-0.057-0.141-0.113-0.378-0.113-0.52
		c0-0.991,5.158-2.172,9.692-2.172c4.478,0,7.539,1.228,8.843,3.637c0.566,0.992,0.793,2.125,0.793,3.919v9.636
		c0,2.079,0.34,3.447,1.304,5.102c0.113,0.188,0.17,0.378,0.17,0.52c0,0.189-0.17,0.378-0.455,0.473l-4.421,1.464
		c-0.169,0.095-0.51,0.141-0.68,0.141c-0.509,0-1.077-0.896-1.7-2.785c-2.268,1.937-4.308,2.691-7.255,2.691
		c-5.214,0-8.501-2.786-8.501-7.132c0-4.204,2.72-6.707,8.445-7.604c1.475-0.284,3.231-0.377,6.349-0.426V18.377z M56.144,23.764
		c-5.668,0-7.936,1.037-7.936,3.777c0,1.843,1.587,3.261,3.628,3.261c1.529,0,2.948-0.615,4.308-1.844V23.764z"/>
	<path fill="#37B7B4" d="M71.754,1.25c0.567-0.095,0.567-0.095,0.68-0.095C72.831,1.155,73,1.391,73,1.958v23.564
		c0,2.646,0,2.74,0.113,3.118c0.226,0.661,0.624,0.944,1.417,0.944c0.624,0,1.133-0.095,1.871-0.283
		c0.17-0.048,0.34-0.048,0.397-0.048c0.226,0,0.396,0.095,0.453,0.283l1.134,3.873l0.057,0.19c0.057,0.094,0.057,0.14,0.057,0.188
		c0,0.614-3.004,1.322-5.725,1.322c-3.288,0-5.555-1.181-6.462-3.4c-0.454-1.087-0.507-1.653-0.507-5.762V3.108
		c0-0.162,0-0.548,0-0.852C65.795,2.247,71.754,1.25,71.754,1.25z"/>
	<path fill="#FFFFFF" d="M107.78,22.158c0.623,1.793,1.19,3.966,1.87,6.8c0.623-2.502,1.359-5.101,1.983-6.8l3.968-10.817
		c0.17-0.519,0.341-0.662,0.681-0.662c0,0,0.226,0,0.453,0.047l4.704,0.472c0.624,0.047,0.85,0.19,0.85,0.473
		c0,0.142-0.055,0.331-0.111,0.519l-9.409,22.436c-0.228,0.567-0.341,0.614-1.077,0.614h-4.648c-0.737,0-0.85-0.047-1.076-0.614
		L96.729,12.19c-0.113-0.236-0.171-0.377-0.171-0.519c0-0.283,0.226-0.377,0.907-0.473l5.555-0.472
		c0.396-0.047,0.396-0.047,0.453-0.047c0.34,0,0.51,0.143,0.68,0.662L107.78,22.158z"/>
	<path fill="#FFFFFF" d="M143.33,10.065c0.169-0.047,0.453-0.095,0.566-0.095c0.681,0,1.417,1.182,2.039,3.26
		c2.836-2.173,5.273-3.023,8.502-3.023c5.046,0,7.313,2.314,7.313,7.463v15.869c0,0.71-0.113,0.805-0.963,0.805h-5.271
		c-0.851,0-0.963-0.095-0.963-0.805V18.993c0-2.787-0.965-3.968-3.231-3.968c-1.644,0-2.947,0.52-4.931,1.937v16.578
		c0,0.71-0.113,0.805-0.965,0.805h-5.27c-0.852,0-0.964-0.095-0.964-0.805V17.67c0-2.032-0.397-3.732-1.19-5.149
		c-0.113-0.189-0.171-0.331-0.171-0.471c0-0.142,0.171-0.332,0.454-0.426L143.33,10.065z"/>
	<path fill="#FFFFFF" d="M165.764,37.886c0.113-0.283,0.341-0.474,0.624-0.474c0.112,0,0.339,0.047,0.509,0.144
		c3.119,1.18,5.895,1.748,8.389,1.748c3.175,0,4.365-1.087,4.365-3.921c0-0.757-0.113-1.844-0.283-3.07
		c-2.098,1.227-4.139,1.746-6.576,1.746c-5.724,0-9.295-4.439-9.295-11.477c0-7.604,4.024-12.375,10.373-12.375
		c2.606,0,4.251,0.567,6.518,2.172c0.68-1.37,1.53-2.314,1.984-2.314c0.17,0,0.453,0.047,0.566,0.095l4.479,1.321
		c0.34,0.142,0.51,0.284,0.51,0.473c0,0.143,0,0.143-0.34,0.85c-0.907,1.749-1.248,3.212-1.248,5.338v6.99
		c0,2.551,0.058,5.149,0.17,7.7c0.057,1.275,0.114,2.361,0.114,2.976c0,5.385-3.798,8.407-10.657,8.407
		c-4.816,0-11.505-1.512-11.505-2.599c0-0.094,0.058-0.33,0.114-0.473L165.764,37.886z M179.367,16.536
		c-1.588-0.991-2.664-1.369-4.025-1.369c-3.003,0-4.646,2.55-4.646,7.179c0,4.535,1.473,6.942,4.194,6.942
		c1.757,0,3.23-0.52,4.478-1.605V16.536z"/>
	<path fill="#FFFFFF" d="M83.22,15.401c-0.85,0-0.963-0.094-0.963-0.801v-2.787c0-0.709,0.113-0.803,0.963-0.803h10.542
		c0.851,0,0.964,0.094,0.964,0.803v21.726c0,0.71-0.114,0.805-0.964,0.805h-5.271c-0.851,0-0.964-0.095-0.964-0.805V15.401H83.22z"
		/>
	<circle fill="#FFFFFF" cx="91.216" cy="5.772" r="3.448"/>
	<path fill="#FFFFFF" d="M124.938,15.401c-0.851,0-0.964-0.094-0.964-0.801v-2.787c0-0.709,0.113-0.803,0.964-0.803h10.542
		c0.851,0,0.965,0.094,0.965,0.803v21.726c0,0.71-0.114,0.805-0.965,0.805h-5.271c-0.851,0-0.964-0.095-0.964-0.805V15.401H124.938z
		"/>
	<circle fill="#FFFFFF" cx="132.935" cy="5.772" r="3.448"/>
	<path fill="#FFFFFF" d="M78.354,0.094C78.92,0,78.92,0,79.034,0c0.397,0,0.567,0.236,0.567,0.803v24.719
		c0,2.646,0,2.74,0.113,3.118c0.227,0.661,0.624,0.944,1.417,0.944c0.623,0,1.133-0.095,1.871-0.283
		c0.169-0.048,0.34-0.048,0.397-0.048c0.227,0,0.396,0.095,0.453,0.283l1.134,3.873l0.057,0.19c0.057,0.094,0.057,0.14,0.057,0.188
		c0,0.614-3.005,1.322-5.725,1.322c-3.287,0-5.555-1.181-6.461-3.4c-0.454-1.087-0.507-1.653-0.507-5.762V1.953
		c0-0.162,0-0.547,0-0.851C72.396,1.092,78.354,0.094,78.354,0.094z"/>
</g>
</svg>
