<?xml version="1.0" encoding="utf-8"?>
<!-- Generator: Adobe Illustrator 19.2.1, SVG Export Plug-In . SVG Version: 6.00 Build 0)  -->
<svg version="1.1" id="Layer_1" xmlns="http://www.w3.org/2000/svg" xmlns:xlink="http://www.w3.org/1999/xlink" x="0px" y="0px"
	 viewBox="0 0 253.5 29.8" style="enable-background:new 0 0 253.5 29.8;" xml:space="preserve">
<style type="text/css">
	.st0{fill:#FFFFFF;}
</style>
<g>
	<g>
		<path class="st0" d="M134,13.1h5.6v15.4h1.5V13.1h5.6v-1.3h-12.6L134,13.1L134,13.1z M159.5,11.5c-5,0-8.3,3.8-8.3,8.6
			s3.3,8.6,8.3,8.6c5,0,8.3-3.8,8.3-8.6S164.5,11.5,159.5,11.5z M159.5,27.5c-4.1,0-6.7-3.1-6.7-7.3c0-4.2,2.6-7.3,6.7-7.3
			c4.1,0,6.7,3.1,6.7,7.3C166.3,24.3,163.6,27.5,159.5,27.5z M185.3,11.8h-1.5v16.7h9.7v-1.3h-8.3L185.3,11.8L185.3,11.8z
			 M206.3,11.5c-5,0-8.3,3.8-8.3,8.6s3.3,8.6,8.3,8.6c5,0,8.3-3.8,8.3-8.6S211.3,11.5,206.3,11.5z M206.3,27.5
			c-4.1,0-6.7-3.1-6.7-7.3c0-4.2,2.6-7.3,6.7-7.3c4.1,0,6.7,3.1,6.7,7.3C213,24.3,210.4,27.5,206.3,27.5z M226.9,26.9l-6.2-15.1H219
			l7,16.7h1.8l7-16.7h-1.7L226.9,26.9z M251.1,13.1v-1.3h-10.8v16.7h10.8v-1.3h-9.3v-6.6h9.2v-1.3h-9.2v-6.2L251.1,13.1L251.1,13.1z
			 M43.2,13.8c-2-1.4-4.4-2.2-7.1-2.2c-2.8,0-5.1,0.7-7.1,2.2C27,15.3,26,17.4,26,20c0,2.8,1,4.9,3,6.3c2,1.5,4.3,2.2,7.1,2.2
			c2.8,0,5.2-0.8,7.2-2.3c2-1.5,3-3.6,3-6.2C46.2,17.3,45.2,15.2,43.2,13.8z M38.4,25.2c-0.6,0.8-1.3,1.2-2.3,1.2
			c-1.2,0-2-0.5-2.5-1.5c-0.5-1-0.7-2.7-0.7-5.1c0-2.6,0.3-4.2,0.9-5c0.6-0.7,1.4-1.1,2.2-1.1c1.1,0,1.9,0.4,2.4,1.3
			s0.8,2.5,0.8,4.9C39.3,22.6,39,24.4,38.4,25.2z M23.2,23.3V18c0-1.5-0.2-2.6-0.5-3.4c-0.3-0.8-1-1.5-2-2.1c-1-0.6-2.2-0.9-3.6-0.9
			c-1.1,0-2.2,0.2-3.2,0.7c-1,0.5-1.9,1.2-2.8,2.1V1.5L2,3v2c1.1,0,1.9,0.2,2.2,0.6c0.3,0.4,0.5,1,0.5,2v15.7c0,1-0.2,1.6-0.5,2
			s-1,0.6-2.2,0.6v2h11.2v-2c-0.8,0-1.3-0.2-1.6-0.6c-0.3-0.4-0.4-1-0.4-1.9v-6c0.6-0.8,1.2-1.4,1.8-1.9c0.6-0.4,1.2-0.6,1.7-0.6
			c1.3,0,2,0.8,2,2.5v6c0,1.1-0.2,1.8-0.6,2.1c-0.4,0.3-0.9,0.4-1.4,0.5v2h11.2v-2c-1.1,0-1.8-0.2-2.1-0.5
			C23.4,25,23.2,24.3,23.2,23.3z M82.7,23.3v-5c0-1.2-0.1-2.1-0.3-2.7s-0.5-1.2-1-1.9s-1.3-1.1-2.2-1.5c-1-0.4-2.1-0.6-3.3-0.6
			c-1.4,0-2.7,0.3-3.9,0.8c-1.1,0.6-2.1,1.4-3,2.5c-0.4-1.1-1.2-2-2.1-2.5c-1-0.6-2.2-0.8-3.8-0.8c-1.4,0-2.7,0.2-3.8,0.7
			s-2.2,1.2-3.1,2.2c0-1.1-0.1-1.9-0.3-2.5l-8.9,1.4v2c1.2,0,2,0.2,2.3,0.5s0.5,1,0.5,2v5.4c0,0.9-0.1,1.6-0.4,1.9
			c-0.3,0.4-1,0.6-2.2,0.6h-0.5v2h12.1v-2c-1,0-1.7-0.2-2-0.5c-0.3-0.4-0.5-1-0.5-2v-6c0.7-0.9,1.4-1.5,2.1-2
			c0.7-0.4,1.4-0.7,2.2-0.7c0.8,0,1.5,0.3,1.9,0.8c0.4,0.5,0.6,1.3,0.6,2.4v5.4c0,0.9-0.2,1.6-0.5,2s-1,0.5-2,0.6v2H72v-2
			c-1,0-1.7-0.2-2-0.5s-0.5-1-0.5-2v-6c0.6-0.9,1.3-1.6,2-2c0.7-0.4,1.4-0.7,2.2-0.7c0.8,0,1.5,0.3,1.9,0.8s0.6,1.3,0.6,2.4v5.5
			c0,0.9-0.2,1.6-0.5,2s-1,0.6-2,0.6v2h11.9v-2c-1.3,0-2.1-0.2-2.4-0.5C82.8,25,82.7,24.3,82.7,23.3z M101.5,13.6
			c-1.7-1.4-3.8-2.1-6.4-2.1c-2.6,0-4.8,0.7-6.6,2.2c-1.8,1.5-2.7,3.5-2.7,6.2c0,2.6,0.9,4.7,2.8,6.2c1.9,1.5,4.2,2.3,6.8,2.3
			c1.7,0,3.3-0.3,4.7-1s2.5-1.5,3.3-2.6l-1.9-1.1c-1.3,1.5-2.8,2.3-4.4,2.3c-1.5,0-2.6-0.5-3.4-1.6c-0.7-1-1.1-2.6-1.1-4.7h11.2
			C104,17.1,103.1,15,101.5,13.6z M92.7,17.9c0-1.4,0.2-2.5,0.6-3.2s1-1.1,1.9-1.1c1.7,0,2.5,1.4,2.6,4.2L92.7,17.9L92.7,17.9z
			 M118.7,18.3c-1-0.4-2.6-0.8-4.7-1.2c-2-0.4-3.2-0.7-3.7-0.9c-0.5-0.2-0.8-0.6-0.8-1.1c0-0.5,0.3-0.9,1-1.2
			c0.6-0.3,1.5-0.5,2.5-0.5c3.1,0,5.1,1,6.2,2.9h1.6l-0.2-4.7h-1.7c-0.2,0.4-0.4,0.7-0.8,1c-1.8-0.7-3.6-1-5.4-1
			c-2.3,0-4.1,0.5-5.5,1.5c-1.4,1-2.1,2.3-2.1,3.9c0,1.1,0.3,2,1,2.9c0.7,0.8,1.6,1.5,2.7,1.9c1.1,0.4,2.8,0.8,5.1,1.3
			c1.5,0.3,2.4,0.5,2.9,0.8c0.4,0.2,0.6,0.6,0.6,1c0,0.5-0.4,0.9-1.1,1.3c-0.8,0.4-1.7,0.6-2.9,0.6c-2.8,0-4.7-1.1-5.8-3.2h-2
			l0.1,5.2h1.8c0.2-0.5,0.4-0.8,0.8-1.1c1.9,0.7,3.8,1.1,5.5,1.1c2.3,0,4.2-0.5,5.8-1.6c1.6-1.1,2.3-2.4,2.3-4.1
			c0-1-0.3-1.9-0.9-2.7C120.5,19.3,119.7,18.7,118.7,18.3z"/>
	</g>
</g>
</svg>
